<svg width="177" height="177" viewBox="0 0 177 177" fill="none" xmlns="http://www.w3.org/2000/svg">
<g style="mix-blend-mode:multiply">
<path d="M144.89 0H31.37C14.0448 0 0 14.0448 0 31.37V144.89C0 162.215 14.0448 176.26 31.37 176.26H144.89C162.215 176.26 176.26 162.215 176.26 144.89V31.37C176.26 14.0448 162.215 0 144.89 0Z" fill="#D8D8D8"/>
</g>
<path opacity="0.5" d="M87.69 134.69C113.647 134.69 134.69 113.647 134.69 87.6901C134.69 61.7327 113.647 40.6901 87.69 40.6901C61.7326 40.6901 40.69 61.7327 40.69 87.6901C40.69 113.647 61.7326 134.69 87.69 134.69Z" fill="white"/>
<path opacity="0.5" d="M87.69 148.06C121.031 148.06 148.06 121.031 148.06 87.6901C148.06 54.3486 121.031 27.3201 87.69 27.3201C54.3486 27.3201 27.32 54.3486 27.32 87.6901C27.32 121.031 54.3486 148.06 87.69 148.06Z" fill="white"/>
<path opacity="0.25" d="M87.69 159.38C127.283 159.38 159.38 127.283 159.38 87.6901C159.38 48.0968 127.283 16 87.69 16C48.0967 16 16 48.0968 16 87.6901C16 127.283 48.0967 159.38 87.69 159.38Z" fill="white"/>
</svg>
