<svg width="26" height="24" viewBox="0 0 26 24" fill="none" xmlns="http://www.w3.org/2000/svg">
<path d="M13.013 23.87H4.40299C1.88299 23.87 0.252992 22.55 0.152992 20.04C-0.0509972 16.0426 -0.0509972 12.0374 0.152992 8.03996C0.221951 7.07981 0.656484 6.18271 1.36716 5.53343C2.07784 4.88414 3.01048 4.53213 3.97294 4.54997C5.17294 4.54997 6.38299 4.54997 7.59299 4.54997C7.78667 4.52637 7.98309 4.54297 8.17008 4.59867C8.35707 4.65438 8.53059 4.74802 8.67979 4.87376C8.82898 4.99949 8.95063 5.1546 9.03721 5.32945C9.12378 5.50429 9.1734 5.69512 9.18296 5.88999C9.18296 6.67999 8.57294 7.21 7.60294 7.21H4.25297C3.25297 7.21 2.79295 7.65997 2.79295 8.67997C2.79295 12.37 2.79295 16.07 2.79295 19.76C2.79295 20.76 3.23298 21.21 4.26298 21.21H21.643C22.713 21.21 23.143 20.7799 23.143 19.7199C23.143 16.0466 23.143 12.3799 23.143 8.71995C23.143 7.65995 22.713 7.22995 21.653 7.21995H18.303C17.373 7.21995 16.773 6.69997 16.763 5.92997C16.766 5.73532 16.8096 5.54346 16.891 5.36662C16.9724 5.18977 17.0898 5.03186 17.2356 4.90293C17.3815 4.77401 17.5526 4.67689 17.7381 4.61784C17.9236 4.55879 18.1194 4.53909 18.313 4.55998C19.543 4.55998 20.773 4.55998 22.003 4.55998C22.9474 4.57307 23.8548 4.92937 24.5559 5.56236C25.257 6.19534 25.7038 7.06176 25.813 7.99998C25.9096 9.22747 25.9363 10.4595 25.893 11.69C25.893 14.27 25.893 16.84 25.893 19.42C25.9522 20.4543 25.6635 21.4787 25.073 22.33C24.7066 22.8288 24.2253 23.232 23.67 23.5053C23.1147 23.7786 22.5017 23.914 21.883 23.9L13.013 23.87Z" fill="#15152C"/>
<path d="M14.523 11.51C14.973 11.04 15.413 10.51 15.893 10.09C16.0137 9.96006 16.16 9.85643 16.3226 9.78556C16.4852 9.71469 16.6606 9.67807 16.838 9.67807C17.0154 9.67807 17.1908 9.71469 17.3534 9.78556C17.516 9.85643 17.6622 9.96006 17.783 10.09C17.9093 10.2138 18.0098 10.3616 18.0783 10.5248C18.1469 10.6879 18.1822 10.863 18.1822 11.04C18.1822 11.2169 18.1469 11.3921 18.0783 11.5552C18.0098 11.7183 17.9093 11.8661 17.783 11.99C16.523 13.28 15.253 14.56 13.963 15.81C13.8439 15.9443 13.6976 16.0518 13.5338 16.1254C13.3701 16.199 13.1925 16.2371 13.013 16.2371C12.8335 16.2371 12.6559 16.199 12.4922 16.1254C12.3284 16.0518 12.1821 15.9443 12.063 15.81C10.7763 14.5633 9.50298 13.2933 8.24298 12C8.10205 11.8743 7.98932 11.7202 7.91211 11.5479C7.8349 11.3755 7.79498 11.1888 7.79498 11C7.79498 10.8111 7.8349 10.6244 7.91211 10.4521C7.98932 10.2797 8.10205 10.1257 8.24298 9.99997C8.37313 9.87929 8.52661 9.78656 8.69397 9.72745C8.86133 9.66834 9.03905 9.6441 9.21613 9.65628C9.3932 9.66846 9.56588 9.71679 9.72357 9.79825C9.88126 9.87971 10.0206 9.99261 10.133 10.13C10.593 10.58 11.003 11.06 11.473 11.58C11.6335 11.3389 11.6945 11.045 11.643 10.76C11.643 8.04998 11.643 5.33998 11.643 2.62998C11.643 2.42998 11.643 2.21999 11.643 2.01999C11.643 1.84278 11.6783 1.66735 11.747 1.504C11.8157 1.34065 11.9164 1.19266 12.0431 1.06876C12.1698 0.944857 12.32 0.84749 12.4848 0.782443C12.6496 0.717396 12.8258 0.685978 13.003 0.689975C13.1746 0.691274 13.3442 0.726506 13.5021 0.793674C13.66 0.860841 13.803 0.958623 13.9229 1.08133C14.0428 1.20404 14.1372 1.34925 14.2007 1.50864C14.2643 1.66802 14.2956 1.83843 14.293 2.00998C14.293 3.46998 14.293 4.92999 14.293 6.38999V11.39L14.523 11.51Z" fill="#15152C"/>
</svg>
