<svg width="150" height="150" viewBox="0 0 150 150" fill="none" xmlns="http://www.w3.org/2000/svg">
<rect width="150" height="150" fill="#64D2CC"/>
<path fill-rule="evenodd" clip-rule="evenodd" d="M53.3351 30C59.7796 30 65.0038 35.2275 65.0038 41.6759C65.0038 48.1243 59.7796 53.3517 53.3351 53.3517C46.8907 53.3517 41.6664 48.1243 41.6664 41.6759C41.6664 35.2275 46.8907 30 53.3351 30ZM28.0174 102.281C28.0888 102.976 28.3764 103.632 28.8396 104.154C48.564 126.987 103.951 125.171 121.809 103.705C122.237 103.173 122.498 102.526 122.56 101.846C122.621 101.165 122.48 100.482 122.154 99.882C121.38 98.5485 120.608 97.2075 119.836 95.8675C118.576 93.679 117.317 91.4934 116.052 89.3477C115.157 87.5963 114.153 85.9037 113.044 84.2796C112.708 83.7837 112.256 83.3778 111.727 83.0971C111.198 82.8165 110.609 82.6698 110.01 82.6698C109.412 82.6698 108.822 82.8165 108.294 83.0971C107.765 83.3778 107.312 83.7837 106.976 84.2796C106.639 84.7243 106.343 85.2097 106.051 85.6877C106.014 85.7489 105.977 85.81 105.939 85.8708C105.283 86.9779 104.625 88.1025 104.003 89.2269C103.554 90.0745 103.364 90.0745 102.413 87.9296C99.0564 80.5494 95.0045 73.506 90.312 66.8955C88.6776 64.5242 87.2721 62.0193 85.8676 59.5162C84.5981 57.2537 83.3293 54.9925 81.8931 52.8327C79.5939 49.3559 75.791 49.2174 73.4226 52.6769C71.5902 55.3407 63.3616 68.1236 61.754 72.154C60.5612 75.1292 60.302 75.5964 59.6969 74.5413C58.6424 72.6731 57.5531 70.8219 56.4641 68.9711C55.9369 68.0364 55.2528 67.1998 54.4416 66.4976C53.5745 65.7931 52.4836 65.4232 51.367 65.455C50.2505 65.4867 49.1824 65.9182 48.3566 66.6708C47.5279 67.4601 46.8228 68.3698 46.2649 69.3693L35.1496 88.6213L28.442 100.28C28.0947 100.886 27.9461 101.586 28.0174 102.281Z" fill="url(#paint0_linear_118_185)"/>
<defs>
<linearGradient id="paint0_linear_118_185" x1="41.6664" y1="41.6759" x2="65.0038" y2="41.6759" gradientUnits="userSpaceOnUse">
<stop stop-color="#15152C"/>
<stop offset="1" stop-color="#1A2636"/>
</linearGradient>
</defs>
</svg>
