<svg width="150" height="150" viewBox="0 0 150 150" fill="none" xmlns="http://www.w3.org/2000/svg">
<rect width="150" height="150" fill="#64D2CC"/>
<path d="M49.4268 96.4409C49.6482 96.9934 50.0367 97.463 50.538 97.7841C50.7004 97.4541 50.8654 97.1266 51.0381 96.8018C55.4056 88.4719 62.0109 82.7614 64.5658 80.753C64.406 80.7041 64.2358 80.6473 64.0502 80.5829C62.6013 80.0673 61.9877 79.531 60.8584 79.0128C59.8271 78.5307 59.1955 78.443 57.744 78.0898C54.2866 77.2468 52.3814 76.7802 50.4374 75.7309C48.8905 74.9007 47.1451 73.9468 45.9256 72.0545C45.2295 70.9742 44.9665 69.992 43.68 68.935C43.0664 68.4193 42.0455 67.5943 41.0142 67.8238C39.5962 68.1435 39.1734 70.2446 39.0934 70.6597C38.7016 72.6088 39.6426 74.2304 40.0654 74.8646C39.7043 76.6283 39.8255 78.4568 40.416 80.1575C40.9715 81.7212 41.8843 83.1337 43.0819 84.2825C43.1471 85.6015 43.616 86.8687 44.4251 87.9125C45.2266 88.9524 46.2961 89.7545 47.5189 90.2328C47.404 90.8667 47.4555 91.5196 47.6685 92.1277C48.0181 93.0485 48.6795 93.8175 49.5376 94.301C49.2204 94.9719 49.1805 95.7408 49.4268 96.4409V96.4409Z" fill="#1D2334"/>
<path d="M98.8737 98.2687C93.6193 87.6185 84.6937 81.0495 84.6937 81.0495L84.7427 81.1294C84.4682 80.8234 84.1396 80.5708 83.7733 80.3843C83.2549 80.1213 82.6813 79.9861 82.1 79.9899C82.1 79.6109 82.0846 79.2345 82.0768 78.8555C84.0371 78.7033 85.9425 78.1356 87.6663 77.19C88.9348 76.4785 90.5848 75.5607 91.58 73.6271C91.8713 73.0625 92.7196 71.2217 92.1781 69.1205C91.8481 67.8315 91.0876 66.8002 90.3579 65.8154C89.5587 64.73 89.1694 64.5263 88.6125 63.4822C88.2141 62.7074 87.921 61.8829 87.7411 61.0304C87.4987 59.9089 87.7153 59.976 87.4652 58.0939C87.2822 56.6811 87.063 55.9077 86.7433 55.1833C86.6061 54.8644 86.4477 54.5552 86.2689 54.2577C90.0436 52.3895 93.5018 49.9406 96.5172 47.0003C99.7528 43.8163 103.081 40.555 103.298 35.8577C103.331 35.1951 103.496 30.1678 100.307 28.6209C98.6545 27.8191 96.8575 28.3193 95.0219 28.8298C89.9042 30.2683 87.2512 34.084 86.568 35.1436C86.2767 35.5999 85.7946 36.6543 84.8742 38.7529C83.4794 41.8699 82.5332 44.448 81.7829 46.4718C81.391 47.534 80.8702 48.9752 80.2876 50.7025C79.3471 50.4594 78.3909 50.2819 77.4258 50.1714C76.7787 50.0966 76.1676 50.058 75.6004 50.0425H74.827C74.2598 50.058 73.6488 50.0966 73.0016 50.1714C72.034 50.2816 71.0751 50.459 70.1321 50.7025C69.5469 48.9752 69.0287 47.534 68.6368 46.4718C67.8865 44.448 66.9249 41.8699 65.5301 38.7503C64.5968 36.6543 64.1301 35.5999 63.8362 35.141C63.1556 34.084 60.5026 30.2683 55.3849 28.8349C53.5493 28.3244 51.7523 27.8243 50.0971 28.6261C46.9079 30.173 47.0729 35.2003 47.1038 35.8629C47.323 40.555 50.6488 43.8215 53.887 47.0055C56.9019 49.9452 60.3591 52.3941 64.1327 54.2629C63.9561 54.5615 63.7976 54.8706 63.6583 55.1884C63.2726 56.1211 63.0301 57.1068 62.939 58.112C62.6812 59.994 62.9055 59.9167 62.6657 61.0485C62.4854 61.9012 62.1915 62.7258 61.7917 63.5003C61.2374 64.5315 60.8481 64.7481 60.0463 65.8334C59.3192 66.8157 58.5587 67.8444 58.2416 69.1386C57.7001 71.2398 58.5484 73.0805 58.8397 73.6451C59.8194 75.5658 61.472 76.4836 62.7302 77.19C64.4529 78.1331 66.3564 78.699 68.3145 78.8504C68.3145 79.2293 68.2965 79.6057 68.2887 79.9847C67.7084 79.9813 67.1356 80.1165 66.6181 80.3792C66.2518 80.5656 65.9231 80.8183 65.6487 81.1243L65.6951 81.0443C65.6951 81.0443 56.7746 87.6134 51.5151 98.2636C50.5801 100.152 49.8039 102.114 49.1947 104.131C49.1947 104.131 47.2972 109.262 50.4838 110.93C53.6705 112.598 55.8722 110.004 56.3672 108.352C56.424 108.158 56.8648 106.031 57.7362 102.716C58.5613 99.5732 59.7756 95.3787 61.4205 90.8077L58.3756 103.938C58.2005 104.785 58.0757 105.642 58.0018 106.503C57.8523 108.261 57.7672 109.236 58.1513 110.339C58.562 111.456 59.2896 112.428 60.2448 113.137C59.8684 115.741 59.5229 117.942 59.2135 119.804C63.0856 120.996 67.0793 121.749 71.1196 122.049C70.8643 119.746 70.797 117.426 70.9185 115.112C71.8157 115.181 72.981 115.243 74.332 115.251C74.6543 115.251 74.9636 115.251 75.2266 115.251H75.2524C75.5102 115.251 75.7809 115.251 76.0722 115.251C77.4309 115.251 78.5911 115.181 79.4883 115.112C79.6104 117.426 79.5423 119.746 79.2847 122.049C83.3261 121.752 87.3214 121.002 91.1958 119.814C90.8839 117.95 90.5384 115.751 90.1646 113.144C91.1198 112.436 91.8474 111.463 92.2581 110.347C92.6422 109.244 92.5571 108.269 92.405 106.511C92.3317 105.649 92.2078 104.793 92.0338 103.946L88.9735 90.8025C90.6183 95.3735 91.8327 99.5681 92.6577 102.711C93.5291 106.016 93.97 108.153 94.0241 108.347C94.5217 110.009 96.7183 112.598 99.9101 110.925C103.102 109.251 101.199 104.126 101.199 104.126C100.589 102.112 99.811 100.153 98.8737 98.2687V98.2687Z" fill="#1D2334"/>
<path d="M111.303 70.6468C111.226 70.2446 110.803 68.1434 109.385 67.8109C108.354 67.5814 107.322 68.4141 106.716 68.922C105.427 69.9791 105.17 70.9613 104.473 72.0416C103.254 73.9339 101.496 74.8775 99.9617 75.7179C98.0177 76.7672 96.1125 77.2339 92.6551 78.0769C91.201 78.4301 90.5694 78.5178 89.5407 78.9999C88.4192 79.5155 87.7952 80.0543 86.3489 80.57C86.1736 80.6344 86.0034 80.6911 85.8333 80.7401C88.3856 82.7485 94.9935 88.459 99.361 96.7889C99.5311 97.1137 99.6987 97.4411 99.8611 97.7711C100.362 97.4501 100.751 96.9805 100.972 96.4279C101.098 96.0806 101.154 95.7118 101.137 95.3428C101.119 94.9738 101.029 94.6119 100.872 94.2778C101.73 93.795 102.392 93.0257 102.741 92.1045C102.956 91.4968 103.008 90.8436 102.893 90.2095C104.116 89.7319 105.186 88.9296 105.987 87.8892C106.79 86.8436 107.251 85.5763 107.309 84.2592C108.509 83.1114 109.423 81.6987 109.978 80.1343C110.569 78.4337 110.69 76.6048 110.326 74.8414C110.754 74.2175 111.698 72.5958 111.303 70.6468Z" fill="#1D2334"/>
</svg>
