<svg width="149" height="150" viewBox="0 0 149 150" fill="none" xmlns="http://www.w3.org/2000/svg">
<rect width="149" height="150" fill="#64D2CC"/>
<path d="M105.701 50.8367C100.781 48.9934 95.9148 47.0107 90.9946 45.1571C89.6415 44.6408 88.7523 43.9566 88.555 42.436C88.3423 40.8121 87.3967 40.1848 85.7105 40.2003C78.279 40.2726 70.8321 40.2287 63.3929 40.2339C61.0353 40.2442 60.856 40.3552 60.2179 42.689C59.9257 43.7398 59.567 44.5401 58.3959 44.9764C53.3732 46.8481 48.4018 48.8979 43.3791 50.7438C41.7185 51.3531 41.124 52.2541 41.124 54.0225C41.1753 71.49 41.1548 88.9602 41.1573 106.43C41.1573 108.958 41.452 109.244 44.0146 109.247C54.1351 109.247 64.2548 109.247 74.3736 109.247C84.6018 109.247 94.8299 109.247 105.058 109.247C107.3 109.247 107.674 108.885 107.674 106.686C107.674 89.0531 107.684 71.4195 107.703 53.785C107.708 52.2102 107.136 51.3789 105.701 50.8367ZM68.8999 63.2287C67.8544 67.8241 67.0395 72.4737 66.1298 77.1L65.7838 77.1852C64.5743 73.9151 63.3647 70.6372 62.1552 67.3516C61.4735 65.498 60.8457 63.6211 60.1051 61.7882C59.7259 60.8381 59.8079 60.2624 60.8534 59.8932C61.7221 59.586 62.5063 59.018 63.3852 58.7521C64.3283 58.4681 65.2687 57.1644 66.3015 58.3391C67.5187 59.7228 69.4663 60.6729 68.8871 63.2158L68.8999 63.2287ZM72.6183 50.6044C69.0306 52.3341 65.3661 53.9606 61.7298 55.6128C61.389 55.7677 61.0097 56.1033 60.6663 55.871C60.2128 55.5689 60.4767 55.0732 60.5895 54.6628C61.412 51.6371 62.2654 48.6191 63.0624 45.5856C63.3417 44.522 63.8311 44.4471 64.7075 44.9454C67.2342 46.3705 69.7456 47.8136 72.6362 48.4384C75.0783 48.9547 77.3078 48.3429 79.4732 47.3773C81.1184 46.6441 82.6867 45.7328 84.2806 44.8808C84.8854 44.5556 85.4363 44.3645 85.6798 45.25C86.6638 48.7869 87.6273 52.3315 88.719 56.315C84.237 54.2729 80.1958 52.4761 76.1956 50.5837C75.6422 50.2891 75.0255 50.1357 74.3996 50.137C73.7736 50.1384 73.1576 50.2944 72.6054 50.5915L72.6183 50.6044ZM88.5729 62.3768C86.6382 67.2819 84.8931 72.2568 83.0762 77.2058L82.7635 77.1929C81.7846 72.2878 80.7724 67.3955 79.8422 62.4775C79.5526 60.9465 80.9877 60.2211 81.6719 59.1445C82.5637 57.7453 83.6348 57.6833 84.9699 58.512C85.7157 58.9752 86.5175 59.3396 87.3557 59.5963C88.8958 60.0559 89.1854 60.7787 88.5601 62.3639L88.5729 62.3768ZM100.24 77.0432C98.8233 77.0664 97.4216 77.0432 95.9942 77.0432C94.5668 77.0432 93.1753 77.0587 91.748 77.0432C90.9792 77.0432 90.2976 76.8186 90.2847 75.8737C90.2719 74.9288 90.9023 74.5132 91.771 74.508C94.6001 74.4874 97.431 74.4874 100.263 74.508C101.099 74.508 101.829 74.8514 101.837 75.7988C101.832 76.7928 101.045 77.0174 100.228 77.0303L100.24 77.0432Z" fill="url(#paint0_linear_114_132)"/>
<defs>
<linearGradient id="paint0_linear_114_132" x1="41.124" y1="74.7274" x2="107.703" y2="74.7274" gradientUnits="userSpaceOnUse">
<stop stop-color="#15152C"/>
<stop offset="1" stop-color="#1A2636"/>
</linearGradient>
</defs>
</svg>
