<svg width="150" height="150" viewBox="0 0 150 150" fill="none" xmlns="http://www.w3.org/2000/svg">
<rect width="150" height="150" fill="#64D2CC"/>
<path d="M117.507 58.1901C117.174 67.3718 112.138 73.7745 107.237 80.0072C102.879 85.5613 97.6365 90.3609 91.7192 94.2137C91.99 94.8017 92.2301 95.4035 92.4382 96.0165C92.9202 97.4408 93.2526 98.95 93.531 101.716C93.531 101.762 93.531 101.811 93.5439 101.858C93.582 102.097 93.5465 102.341 93.442 102.559C93.3374 102.778 93.1689 102.959 92.9588 103.079C87.2919 105.598 81.1551 106.89 74.9526 106.868C68.75 106.846 62.6225 105.512 56.9734 102.952C56.7647 102.832 56.5974 102.651 56.4935 102.433C56.3896 102.216 56.3538 101.972 56.3909 101.734V101.734C56.6718 98.9681 57.0017 97.4588 57.4862 96.0346C57.6926 95.4212 57.9318 94.8194 58.2027 94.2317C52.2854 90.379 47.043 85.5793 42.6854 80.0252C37.7861 73.7745 32.7477 67.3718 32.4178 58.1901C32.3688 56.9023 32.1189 47.0536 36.946 44.0248C39.451 42.4563 42.1725 43.4325 44.9507 44.4343C52.7004 47.221 56.7182 54.708 57.7517 56.7968C58.1924 57.6905 58.9011 59.7509 60.316 63.8562C62.4267 69.9808 63.8622 74.9824 64.9988 78.9744C65.5915 81.0529 66.3776 83.8679 67.2641 87.2572C68.6785 86.7867 70.1317 86.442 71.6067 86.227C72.5228 86.0881 73.4461 86.0021 74.3721 85.9695V85.9515C74.5628 85.9515 74.7612 85.9515 74.9622 85.9515C75.1633 85.9515 75.3591 85.9515 75.5498 85.9515V85.954C76.4758 85.9865 77.3991 86.0725 78.3152 86.2116C79.7894 86.4264 81.2417 86.7711 82.6552 87.2418C83.5417 83.8602 84.3278 81.0374 84.9205 78.959C86.0597 74.9669 87.4977 69.9653 89.6033 63.8408C91.0182 59.7354 91.7269 57.675 92.1805 56.7813C93.2114 54.7029 97.2318 47.2159 104.979 44.4189C107.749 43.4325 110.471 42.4563 112.976 44.0248C117.806 47.0639 117.553 56.8946 117.507 58.1901Z" fill="url(#paint0_linear_114_107)"/>
<defs>
<linearGradient id="paint0_linear_114_107" x1="32.3998" y1="75.0365" x2="117.522" y2="75.0365" gradientUnits="userSpaceOnUse">
<stop stop-color="#15152C"/>
<stop offset="1" stop-color="#1A2636"/>
</linearGradient>
</defs>
</svg>
