<svg width="149" height="150" viewBox="0 0 149 150" fill="none" xmlns="http://www.w3.org/2000/svg">
<rect width="149" height="150" fill="#64D2CC"/>
<path d="M122.148 73.3899C121.856 72.9349 121.636 72.4358 121.359 71.9782C120.925 71.2852 120.354 70.7215 119.874 70.0777C119.585 69.695 119.285 69.302 118.972 68.9322C118.49 68.3479 118.054 67.7196 117.521 67.1869C116.987 66.6543 116.513 66.0983 116.003 65.5579C115.767 65.2994 115.544 65.0408 115.3 64.8081C114.936 64.4771 114.649 64.0763 114.288 63.7738C114.013 63.4852 113.722 63.2133 113.416 62.9593C113.133 62.7432 112.875 62.4951 112.647 62.2198C112.329 61.8785 111.965 61.5915 111.647 61.2554C111.391 60.9787 111.07 60.7382 110.811 60.4797C110.53 60.1702 110.222 59.8864 109.891 59.6316C109.504 59.3471 109.14 59.0291 108.783 58.7214C108.527 58.4964 108.222 58.3749 107.976 58.1551C107.594 57.8061 107.207 57.4751 106.812 57.1209C106.417 56.7666 105.894 56.5753 105.484 56.1978C105.179 55.9134 104.863 55.5462 104.417 55.4221C103.971 55.298 103.604 54.9308 103.256 54.6464C102.835 54.3051 102.333 54.1292 101.905 53.7905C101.477 53.4518 101.077 53.0536 100.482 53.0433C100.428 53.0433 100.366 52.9657 100.325 52.9088C100.148 52.6832 99.8924 52.5344 99.6101 52.4925C99.4896 52.4692 99.3537 52.4537 99.2794 52.3322C99.1972 52.2076 99.0865 52.1047 98.9567 52.0322C98.8268 51.9598 98.6816 51.9199 98.5333 51.9159C98.4077 51.8952 98.259 51.8771 98.1974 51.7608C98.0359 51.4531 97.7462 51.4014 97.4591 51.3341C97.3164 51.324 97.1815 51.2646 97.0771 51.1661C96.9678 51.0359 96.8325 50.9304 96.6801 50.8565C96.5277 50.7825 96.3616 50.7418 96.1926 50.7368C96.0967 50.7316 96.0059 50.6922 95.9362 50.6257C95.6952 50.2611 95.3132 50.2171 94.9363 50.1602C94.866 50.159 94.7968 50.1432 94.7329 50.1138C94.6689 50.0845 94.6116 50.0422 94.5645 49.9896C94.3646 49.731 94.0774 49.6948 93.7954 49.6172C93.0878 49.4311 92.4853 48.9372 91.7444 48.8726C91.7213 48.8726 91.6982 48.8415 91.6777 48.8234C91.3752 48.5209 90.9829 48.5106 90.5958 48.4252C89.7805 48.2417 89.0396 47.7866 88.1935 47.6883C88.1802 47.6831 88.1679 47.6751 88.1576 47.6651C87.8839 47.4656 87.5611 47.3458 87.2244 47.3186C86.7476 47.2255 86.2245 47.3755 85.7938 47.06C85.494 46.8735 85.1532 46.7642 84.8016 46.742C84.0992 46.623 83.3275 46.8402 82.6993 46.3153C82.6147 46.2455 82.4558 46.2584 82.3327 46.2403C81.0508 46.049 79.7382 46.1498 78.446 45.8396C77.1539 45.5293 75.7079 45.6043 74.344 45.6172C73.6543 45.6172 72.9646 45.5939 72.275 45.6172C71.5853 45.6405 70.9034 45.7387 70.2239 45.7775C69.8753 45.7982 69.5984 46.0361 69.2497 46.0361C68.5472 46.0542 67.8422 46.08 67.1423 46.1292C66.709 46.1602 66.2244 46.1007 65.8604 46.3489C65.4963 46.5972 65.1118 46.6075 64.7092 46.6489C64.0196 46.7239 63.2863 46.6489 62.6915 47.1402C62.5454 47.2617 62.3377 47.21 62.1583 47.2358C61.6455 47.3134 61.0712 47.2358 60.62 47.5746C60.4052 47.7335 60.1479 47.8236 59.8816 47.8331C59.5201 47.8564 59.1381 47.8616 58.8561 48.1434C58.7548 48.2421 58.6338 48.3178 58.5012 48.3655C58.3685 48.4132 58.2273 48.4318 58.087 48.4201C57.7455 48.3843 57.4036 48.4834 57.1333 48.6967C56.9015 48.882 56.6204 48.9936 56.3257 49.0174C55.6129 49.1466 55.0438 49.6974 54.3105 49.7646C54.2644 49.7646 54.2157 49.8267 54.1849 49.8732C54.1209 49.958 54.0389 50.0271 53.9448 50.0754C53.8507 50.1238 53.747 50.1501 53.6414 50.1525C52.9568 50.2119 52.5031 50.8403 51.8185 50.9075C51.7749 50.9075 51.7365 50.9851 51.6929 51.0187C51.2144 51.3541 50.698 51.631 50.1546 51.8435C49.5915 52.0969 49.0489 52.3943 48.5317 52.733C48.0446 53.0588 47.4755 53.2346 46.9935 53.6043C46.5884 53.912 46.191 54.3283 45.6372 54.4292C45.5885 54.4292 45.5449 54.4938 45.509 54.5378C45.2279 54.8603 44.8771 55.1133 44.4835 55.2773C43.6605 55.6367 43.1145 56.3478 42.3325 56.7511C41.5505 57.1545 40.907 57.9043 40.161 58.4525C39.4983 58.9183 38.8779 59.4427 38.3074 60.0194C38.1207 60.2435 37.9129 60.4487 37.6869 60.6322C37.3039 60.9395 36.9392 61.2693 36.5947 61.6199C36.3668 61.868 36.1227 62.1003 35.8641 62.3155C35.5154 62.5404 35.3077 62.8869 35.0001 63.1377C34.7847 63.3136 34.4873 63.4816 34.3489 63.7531C34.1745 64.1203 33.8053 64.2935 33.5669 64.6038C33.4054 64.8107 33.2387 65.121 33.0003 65.227C32.585 65.4105 32.3927 65.8087 32.144 66.1035C31.6774 66.6543 31.1185 67.1171 30.6827 67.6885C30.2468 68.26 29.7084 68.8495 29.2239 69.4339C29.1008 69.5812 29.0803 69.7803 28.9393 69.951C28.6137 70.3207 28.2522 70.6543 27.9573 71.0577C27.701 71.4197 27.4702 71.8127 27.1882 72.1643C26.6755 72.8444 26.2755 73.5606 26.2396 74.4371C26.2268 75.0034 26.155 75.624 26.4832 76.0997C26.8113 76.5755 26.8575 77.1521 27.3395 77.5658C27.6876 77.9052 27.9717 78.3056 28.1778 78.7475C28.3211 79.0495 28.5307 79.3148 28.7906 79.5232C29.1444 79.7817 29.3033 80.1748 29.6161 80.4514C29.8443 80.6211 30.0398 80.8314 30.193 81.072C30.508 81.6223 30.899 82.1247 31.3544 82.5639C31.5894 82.7998 31.8086 83.0512 32.0107 83.3164C32.287 83.6596 32.5924 83.978 32.9234 84.2679C33.1968 84.5206 33.4537 84.791 33.6925 85.0772C33.969 85.4009 34.2699 85.7026 34.5924 85.9796C35.0616 86.458 35.5564 86.9311 36.0333 87.4069C36.5101 87.8827 36.987 88.3662 37.4844 88.8109C38.0688 89.3555 38.6852 89.8641 39.3303 90.3339C39.6005 90.4937 39.8495 90.6874 40.0712 90.9105C40.4136 91.254 40.7831 91.5688 41.1762 91.8517C41.5377 92.1645 41.9736 92.3843 42.3222 92.6868C42.6709 92.9894 43.035 93.2712 43.3888 93.5401C43.9015 93.9306 44.5066 94.2046 44.9706 94.6752C45.0439 94.7389 45.1322 94.7826 45.227 94.8019C45.6972 94.9551 46.1261 95.2151 46.4807 95.5621C46.9499 95.9551 47.5062 96.1439 48.001 96.4749C48.5394 96.8394 49.1419 97.142 49.7111 97.4833C49.8853 97.6056 50.0811 97.6934 50.2879 97.7418C50.3583 97.7454 50.4271 97.7636 50.4902 97.7951C50.5533 97.8267 50.6092 97.8711 50.6546 97.9254C50.7415 98.0381 50.8506 98.1315 50.975 98.1995C51.0994 98.2676 51.2365 98.309 51.3775 98.321C51.5662 98.3231 51.7479 98.3927 51.8903 98.5175C52.1163 98.7567 52.4204 98.9055 52.7466 98.9364C52.8886 98.9409 53.0243 98.9969 53.1286 99.0941C53.385 99.3863 53.726 99.4303 54.0644 99.5337C54.6259 99.707 55.0899 100.154 55.7155 100.154C55.7488 100.154 55.7898 100.198 55.8129 100.229C56.0693 100.558 56.4333 100.571 56.7897 100.664C57.5588 100.86 58.2229 101.344 59.0458 101.333C59.0894 101.333 59.1407 101.39 59.1766 101.432C59.401 101.648 59.6966 101.775 60.0073 101.786C60.3893 101.853 60.8302 101.716 61.1481 101.993C61.4372 102.218 61.7862 102.351 62.1506 102.375C62.5531 102.44 63.0095 102.316 63.3504 102.538C63.8632 102.872 64.3965 102.895 64.9554 102.967C65.6348 103.055 66.3731 102.877 66.9731 103.381C67.0589 103.433 67.1578 103.458 67.2576 103.454C67.7345 103.479 68.2062 103.557 68.6882 103.56C69.5445 103.56 70.406 103.611 71.252 103.601C72.0981 103.591 72.9031 103.916 73.7543 103.909C74.7131 103.896 75.6515 103.761 76.6027 103.65C77.8589 103.518 79.1305 103.536 80.3996 103.531C80.8457 103.531 81.3482 103.573 81.72 103.342C82.1203 103.111 82.5767 102.997 83.0378 103.014C83.3454 103.014 83.6531 102.975 83.9607 102.942C84.353 102.903 84.7683 102.895 85.0965 102.665C85.3329 102.517 85.6031 102.433 85.881 102.422C86.3938 102.355 86.9475 102.45 87.3808 102.091C87.5766 101.933 87.8174 101.842 88.0679 101.832C88.4704 101.796 88.9396 101.882 89.2498 101.613C89.5673 101.357 89.9592 101.215 90.3651 101.207C90.5344 101.211 90.7028 101.179 90.8588 101.113C91.0149 101.046 91.1551 100.947 91.2701 100.821C91.3248 100.764 91.3919 100.72 91.4662 100.693C91.5404 100.666 91.6198 100.657 91.6982 100.666C92.534 100.697 93.1032 99.9397 93.9185 99.9086C93.9851 99.9086 94.0569 99.813 94.1082 99.7483C94.1561 99.6866 94.2166 99.636 94.2856 99.5998C94.3546 99.5637 94.4305 99.5429 94.5081 99.5389C95.2593 99.4872 95.79 98.9183 96.5028 98.7089C96.8412 98.6055 97.1617 98.3184 97.5539 98.2435C97.6654 98.2205 97.7683 98.1668 97.8513 98.0883C98.3102 97.6384 98.9435 97.5014 99.4768 97.173C99.9152 96.9015 100.313 96.5136 100.854 96.418C100.91 96.418 100.964 96.3275 100.997 96.268C101.036 96.2001 101.09 96.1426 101.155 96.1003C101.22 96.058 101.294 96.0321 101.371 96.025C101.657 95.9502 101.917 95.8013 102.128 95.5931C102.459 95.2959 102.836 95.0541 103.243 94.8769C103.756 94.6701 104.133 94.2693 104.581 93.9797C105.021 93.7161 105.444 93.4233 105.845 93.1031C106.043 92.9325 106.191 92.6584 106.43 92.586C106.958 92.4283 107.266 91.9706 107.712 91.6939C107.987 91.5353 108.235 91.3318 108.445 91.0915C108.727 90.7295 109.124 90.5304 109.458 90.246C110.104 89.6926 110.755 89.1471 111.398 88.5885C111.711 88.33 111.98 88.0042 112.298 87.7379C112.588 87.5052 112.855 87.2455 113.096 86.9622C113.344 86.6664 113.615 86.3906 113.906 86.1373C114.419 85.6719 114.901 85.1858 115.357 84.6842C115.813 84.1826 116.331 83.7145 116.77 83.1741C117.323 82.4915 117.967 81.8813 118.48 81.1573C118.67 80.8523 118.898 80.5733 119.159 80.3273C119.469 80.0341 119.752 79.713 120.005 79.368C120.518 78.7707 120.938 78.1088 121.397 77.4727C121.913 76.8351 122.257 76.0734 122.394 75.262C122.456 74.6181 122.502 73.9381 122.148 73.3899ZM93.6698 77.452C93.6365 77.9071 93.316 78.2795 93.2698 78.7449C93.2442 79.0034 93.1801 79.262 93.1647 79.5439C93.1416 79.9653 93.1391 80.4023 92.8084 80.7333C92.7691 80.7749 92.7448 80.8286 92.7391 80.8858C92.7135 81.7158 92.0982 82.3364 91.97 83.1276C91.945 83.239 91.8868 83.34 91.8034 83.4172C91.7341 83.487 91.6188 83.5516 91.6059 83.6344C91.5085 84.2446 90.9624 84.6195 90.8086 85.2013C90.7802 85.2935 90.7379 85.3808 90.683 85.4599C89.9831 86.4941 89.1139 87.3707 88.3756 88.3584C88.145 88.6232 87.8872 88.8624 87.6064 89.0721C86.9245 89.6461 86.2399 90.2175 85.5554 90.7941C85.2306 91.0337 84.8877 91.2472 84.5299 91.4328C84.2735 91.5853 83.9889 91.65 83.83 91.9499C83.771 92.0559 83.6326 92.0456 83.5223 92.0637C83.3739 92.0707 83.2291 92.1119 83.0989 92.1841C82.9687 92.2562 82.8566 92.3574 82.7711 92.48C82.7429 92.5239 82.6917 92.5886 82.6481 92.5886C81.8379 92.5886 81.2764 93.3643 80.4458 93.3177C80.3334 93.3003 80.2185 93.3222 80.1202 93.3798C79.5151 93.9693 78.7203 93.7858 78.005 93.9202C77.6414 93.953 77.2903 94.0707 76.9795 94.2641C76.8694 94.329 76.7428 94.3596 76.6155 94.352C75.1266 94.4477 73.6331 94.4477 72.1442 94.352C72.0321 94.3576 71.9205 94.3326 71.8212 94.2796C71.252 93.8349 70.5675 93.9099 69.9214 93.8504C69.5413 93.8596 69.1689 93.7414 68.8626 93.5143C68.6062 93.2893 68.2319 93.2867 67.896 93.2557C67.7342 93.2585 67.5735 93.2285 67.4234 93.1677C67.2733 93.1069 67.1367 93.0163 67.0218 92.9015C66.9936 92.8704 66.9602 92.8291 66.9218 92.8239C66.3706 92.7205 65.9245 92.361 65.4271 92.1723C64.8631 91.9603 64.4529 91.5595 63.9401 91.3009C63.4313 91.0237 62.9527 90.6935 62.5121 90.3158C62.2172 90.0779 61.9352 89.8271 61.6378 89.5918C60.7734 88.8823 59.9985 88.0686 59.3304 87.169C59.1044 86.8299 58.8286 86.5274 58.5126 86.2718C58.2844 86.1089 58.2075 85.7727 58.0819 85.5323C57.8255 85.0151 57.3922 84.6092 57.2358 84.0455C57.2358 84.0326 57.2358 84.0145 57.2358 84.0041C56.7743 83.4689 56.723 82.7113 56.2821 82.1709C56.1565 81.982 56.0896 81.7597 56.0898 81.5322C56.0586 81.1742 55.927 80.8325 55.7103 80.5471C55.4899 80.2627 55.5129 79.9033 55.4899 79.5671C55.4886 78.955 55.3446 78.3518 55.0694 77.8063C55.0156 77.6913 54.9859 77.5663 54.9822 77.4391C54.8681 75.5982 54.8681 73.7519 54.9822 71.9109C54.976 71.8225 54.991 71.7338 55.0258 71.6524C55.395 71.0189 55.4719 70.3156 55.5181 69.6045C55.5213 69.2597 55.6489 68.9279 55.877 68.6711C55.8949 68.6504 55.9206 68.6245 55.9206 68.6013C55.9385 67.8256 56.4615 67.2102 56.659 66.4914C56.6903 66.3249 56.7676 66.1707 56.882 66.0466C57.0219 65.9244 57.1198 65.7605 57.1615 65.5786C57.2096 65.2962 57.3493 65.0379 57.5588 64.8443C57.6354 64.7758 57.6899 64.6857 57.7152 64.5857C57.8665 63.9755 58.4023 63.6342 58.7023 63.1352C58.9587 62.693 59.3227 62.3181 59.5663 61.8578C59.7304 61.5527 60.0457 61.3407 60.2816 61.0821C60.6068 60.7124 60.9647 60.3731 61.3507 60.0685C61.6686 59.81 61.9224 59.4868 62.3044 59.2928C62.767 59.0571 63.1811 58.7351 63.5248 58.3439C63.5632 58.3025 63.594 58.2275 63.635 58.2224C64.1273 58.1474 64.4682 57.7931 64.881 57.5759C65.1595 57.4775 65.4195 57.3324 65.6502 57.1467C65.763 57.0364 65.9112 56.9704 66.068 56.9606C66.2232 56.9553 66.3758 56.9187 66.5167 56.853C66.6576 56.7873 66.784 56.6937 66.8885 56.5779C66.9244 56.5365 66.9782 56.4822 67.0243 56.4822C67.9986 56.4408 68.7728 55.6367 69.7855 55.7375C70.0556 55.7511 70.3203 55.6584 70.5239 55.479C70.9085 55.1945 71.3879 55.2618 71.8263 55.2411C72.6262 55.2023 73.4312 55.2411 74.2337 55.2411C75.3156 55.2592 76.4027 55.1816 77.482 55.3187C77.6359 55.3393 77.8051 55.3187 77.9307 55.4143C78.4024 55.8073 78.9793 55.7815 79.5331 55.828C79.8239 55.8292 80.1044 55.9367 80.3227 56.1306C80.5509 56.3581 80.8611 56.3581 81.1482 56.415C81.2559 56.4383 81.4046 56.3917 81.479 56.4512C81.9507 56.8649 82.6147 56.8882 83.0942 57.276C83.1172 57.2941 83.1352 57.3277 83.1583 57.3329C83.7505 57.4673 84.1351 57.9897 84.7094 58.1629C85.1452 58.2974 85.3939 58.7111 85.7733 58.9386C86.252 59.2433 86.711 59.5784 87.1475 59.9418C87.4039 60.1565 87.6398 60.415 87.891 60.6477C88.2618 60.9873 88.6047 61.3565 88.9165 61.7518C89.1923 62.0652 89.4491 62.3951 89.6857 62.7395C89.9436 63.2124 90.2712 63.6431 90.6573 64.0169C90.8035 64.1462 90.7522 64.353 90.8599 64.4719C91.2983 64.9581 91.3726 65.6588 91.8264 66.1319C91.925 66.2532 91.9801 66.4044 91.9828 66.5612C91.9877 66.711 92.0249 66.858 92.0917 66.992C92.1586 67.1259 92.2535 67.2436 92.3699 67.3369C92.4432 67.4043 92.4989 67.4888 92.532 67.5831C92.5651 67.6774 92.5746 67.7784 92.5597 67.8773C92.5558 68.3059 92.6918 68.7238 92.9468 69.0667C93.1519 69.3253 93.1288 69.6847 93.1493 70.0079C93.1523 70.6062 93.2955 71.1954 93.5672 71.7274C93.6233 71.8408 93.6539 71.9652 93.657 72.0919C93.7742 73.8765 93.7784 75.6669 93.6698 77.452Z" fill="url(#paint0_linear_114_114)"/>
<path d="M85.8684 69.832C85.412 69.3407 85.3556 68.6374 84.9326 68.1074C84.7369 67.8942 84.557 67.6669 84.3942 67.4273C83.9108 66.6171 83.2883 65.9001 82.556 65.3097C81.927 64.7875 81.2669 64.3048 80.5793 63.8643C80.0793 63.5359 79.4845 63.3471 78.959 63.0369C78.7449 62.9654 78.5204 62.9304 78.2949 62.9334C78.1663 62.9323 78.0427 62.8825 77.9488 62.7938C77.6924 62.4706 77.313 62.4447 76.9515 62.4137C76.349 62.362 75.7465 62.3387 75.1415 62.3129C74.7796 62.2619 74.4147 62.2369 74.0493 62.2379C73.3494 62.3077 72.6469 62.3491 71.947 62.4008C71.5086 62.4344 71.0727 62.4577 70.7292 62.7964C70.6559 62.8576 70.5671 62.897 70.4728 62.9102C69.9601 62.9981 69.4063 63.0265 69.0166 63.479C68.9253 63.5469 68.8147 63.5832 68.7012 63.5824C68.1423 63.6548 67.7603 64.0815 67.3399 64.3581C66.9194 64.6348 66.5348 64.9709 66.1374 65.2812C65.4273 65.8397 64.9145 66.5741 64.3428 67.2438C64.0403 67.6032 63.83 68.0712 63.5532 68.4487C63.1737 68.9658 63.0071 69.5838 62.7148 70.1294C62.4456 70.6465 62.4174 71.2903 62.1251 71.8282C62.0853 71.9347 62.0661 72.0479 62.0687 72.1617C61.9341 73.8448 61.9341 75.5362 62.0687 77.2193C62.1328 78.0286 62.7148 78.6828 62.7379 79.5024C63.2634 79.8696 63.2506 80.5522 63.6019 81.0539C63.9967 81.5994 64.3864 82.1605 64.7863 82.7139C65.2061 83.2304 65.6582 83.7192 66.14 84.1773C66.3473 84.4344 66.5982 84.6524 66.8809 84.8212C67.3706 85.0513 67.6911 85.5969 68.2936 85.5969C68.3346 85.5969 68.3859 85.6641 68.4115 85.7107C68.4865 85.823 68.5856 85.9169 68.7014 85.9854C68.8172 86.0539 68.9469 86.0952 69.0807 86.1063C69.2294 86.1399 69.4063 86.1295 69.5063 86.264C69.7626 86.6131 70.1575 86.6234 70.5318 86.6596C70.8149 86.6423 71.0964 86.7146 71.3368 86.8664C71.585 87.0537 71.8835 87.1609 72.1931 87.1741C73.3865 87.2824 74.586 87.304 75.7824 87.2388C76.2388 87.2388 76.772 87.2983 77.1438 87.0242C77.8309 86.507 78.8 86.807 79.4076 86.1425C79.4076 86.1425 79.4333 86.1425 79.4486 86.1425C80.0973 86.0339 80.51 85.4469 81.1356 85.2918C81.1612 85.2918 81.1818 85.2582 81.1971 85.2349C81.4535 84.8703 81.8714 84.7178 82.1893 84.4333C82.7707 83.9069 83.322 83.3474 83.8404 82.7578C84.0788 82.4863 84.2532 82.1657 84.507 81.9278C84.9608 81.5089 85.0197 80.847 85.4607 80.4359C85.4761 80.4204 85.4607 80.3816 85.4787 80.3557C85.7043 79.6731 86.1786 79.0784 86.1914 78.3182C86.1914 78.2587 86.2555 78.1941 86.3042 78.1424C86.4757 77.9343 86.5756 77.6757 86.5888 77.4055C86.6669 76.5296 86.6926 75.6497 86.6657 74.7707C86.6657 74.1579 86.6247 73.545 86.6657 72.9374C86.7503 71.8488 86.0196 70.9723 85.9325 69.9329C85.9211 69.8937 85.8989 69.8587 85.8684 69.832V69.832Z" fill="url(#paint1_linear_114_114)"/>
<defs>
<linearGradient id="paint0_linear_114_114" x1="26.2268" y1="74.7448" x2="122.433" y2="74.7448" gradientUnits="userSpaceOnUse">
<stop stop-color="#15152C"/>
<stop offset="1" stop-color="#1A2636"/>
</linearGradient>
<linearGradient id="paint1_linear_114_114" x1="61.9662" y1="74.7577" x2="86.676" y2="74.7577" gradientUnits="userSpaceOnUse">
<stop stop-color="#15152C"/>
<stop offset="1" stop-color="#1A2636"/>
</linearGradient>
</defs>
</svg>
