<svg width="149" height="150" viewBox="0 0 149 150" fill="none" xmlns="http://www.w3.org/2000/svg">
<rect width="149" height="150" fill="#64D2CC"/>
<path d="M116.304 85.8387C115.489 82.6315 113.615 80.0708 111.819 77.624C109.844 74.9341 108.887 74.409 107.516 71.8277C106.532 69.9036 105.808 67.8549 105.364 65.7366C104.771 62.9716 105.31 63.119 104.689 58.4427C104.235 54.9276 103.696 53.0111 102.908 51.2005C102.57 50.4069 102.179 49.637 101.738 48.896C95.4006 40.6632 86.9897 40.0657 86.9897 40.0657C84.6674 39.4567 82.3052 39.0142 79.9208 38.7414C78.3248 38.5578 76.829 38.4621 75.4203 38.4181V38.4C75.1098 38.4 74.7865 38.4 74.4607 38.4C74.1348 38.4 73.8115 38.4 73.4934 38.4V38.4181C72.095 38.4621 70.5888 38.5578 68.9903 38.7414C66.606 39.0147 64.2439 39.4572 61.9214 40.0657C50.3597 41.7314 47.1832 48.9063 47.1832 48.9063C46.7427 49.6474 46.3518 50.4173 46.0132 51.2109C45.2254 53.0085 44.6866 54.9276 44.2325 58.453C43.6167 63.1294 44.1504 62.969 43.5551 65.7469C43.1128 67.8654 42.3896 69.9142 41.4049 71.8381C40.0347 74.4245 39.0751 74.9418 37.102 77.6344C35.3059 80.0812 33.4328 82.6418 32.6169 85.849C31.2852 91.0763 33.3866 95.6518 34.0922 97.0511C36.5426 101.852 40.6121 104.138 43.7398 105.897C47.9831 108.25 52.6767 109.661 57.5056 110.035C57.5056 110.035 64.0639 113.276 91.4158 110.035C96.2447 109.661 100.938 108.25 105.182 105.897C108.309 104.138 112.379 101.852 114.829 97.0511C115.545 95.6415 117.626 91.066 116.304 85.8387ZM84.1006 80.0036L76.8854 84.5015C76.3136 84.8586 75.6542 85.0478 74.9816 85.0478C74.3089 85.0478 73.6495 84.8586 73.0777 84.5015L65.8574 80.001C65.6643 79.8796 65.5156 79.6981 65.4337 79.484C65.3518 79.2699 65.3412 79.0348 65.4035 78.8141C65.4658 78.5934 65.5975 78.3991 65.7789 78.2605C65.9603 78.1219 66.1814 78.0465 66.4091 78.0456H83.5489C83.7783 78.0435 84.002 78.1174 84.1857 78.256C84.3693 78.3946 84.5027 78.5901 84.5654 78.8125C84.6281 79.035 84.6165 79.272 84.5326 79.4872C84.4486 79.7024 84.2968 79.8838 84.1006 80.0036V80.0036Z" fill="url(#paint0_linear_114_92)"/>
<defs>
<linearGradient id="paint0_linear_114_92" x1="32.1832" y1="74.9289" x2="116.738" y2="74.9289" gradientUnits="userSpaceOnUse">
<stop stop-color="#15152C"/>
<stop offset="1" stop-color="#1A2636"/>
</linearGradient>
</defs>
</svg>
