<svg width="150" height="150" viewBox="0 0 150 150" fill="none" xmlns="http://www.w3.org/2000/svg">
<rect width="150" height="150" fill="#64D2CC"/>
<path d="M40.3376 82.6354C43.5233 84.4972 46.9855 85.6706 50.5691 86.4648C65.6659 89.843 80.8169 89.8353 95.9833 86.9806C100.797 86.0755 105.484 84.6984 109.935 82.5967C110.452 82.3543 110.832 82.1377 110.822 81.4311C110.775 77.6042 110.894 73.7721 110.757 69.9504C110.277 56.3164 100.5 44.5495 87.1108 41.7928C83.2404 40.9882 79.2046 41.0321 76.4943 40.8C71.9237 41.014 68.6087 40.9573 65.3506 41.3622C51.9333 43.0306 40.7845 54.6506 39.7511 68.104C39.4074 72.5601 39.5599 77.0549 39.5547 81.5317C39.5444 81.9056 39.9707 82.4213 40.3376 82.6354Z" fill="url(#paint0_linear_114_143)"/>
<path d="M123.875 84.7474C123.175 84.448 122.442 84.2349 121.691 84.113C119.503 83.8294 117.299 83.5818 115.108 83.4245C113.713 83.3239 112.305 83.4064 110.809 83.4064C110.809 85.4875 110.77 87.5325 110.829 89.5955C110.853 90.413 110.571 90.8617 109.824 91.1427C107.38 92.035 104.998 93.1439 102.497 93.8401C86.0617 98.3994 69.4638 98.5644 52.7678 95.4493C48.484 94.6499 44.3397 93.3553 40.4796 91.2536C39.769 90.8668 39.4461 90.4284 39.4693 89.5645C39.5443 87.5454 39.4926 85.5184 39.4926 83.1898C36.4464 83.3884 33.5216 83.4864 30.6201 83.8036C29.0761 83.9859 27.5618 84.3647 26.114 84.9305C24.0264 85.7351 23.3443 87.1147 23.9359 89.2577C24.2866 90.5077 24.8082 91.7035 25.4862 92.8112C27.2225 95.6324 29.6873 97.765 32.4028 99.614C38.6477 103.864 45.6522 106.226 52.9797 107.727C63.6453 109.911 74.4117 110.272 85.2246 109.395C93.3478 108.733 101.293 107.157 108.868 104.049C114.204 101.858 119.232 99.124 123.102 94.7427C124.379 93.2728 125.415 91.6115 126.174 89.8198C127.228 87.352 126.365 85.7273 123.875 84.7474Z" fill="url(#paint1_linear_114_143)"/>
<defs>
<linearGradient id="paint0_linear_114_143" x1="39.5159" y1="64.9321" x2="110.817" y2="64.9321" gradientUnits="userSpaceOnUse">
<stop stop-color="#15152C"/>
<stop offset="1" stop-color="#1A2636"/>
</linearGradient>
<linearGradient id="paint1_linear_114_143" x1="23.7318" y1="96.5143" x2="126.616" y2="96.5143" gradientUnits="userSpaceOnUse">
<stop stop-color="#15152C"/>
<stop offset="1" stop-color="#1A2636"/>
</linearGradient>
</defs>
</svg>
