<svg width="149" height="150" viewBox="0 0 149 150" fill="none" xmlns="http://www.w3.org/2000/svg">
<rect width="149" height="150" fill="#64D2CC"/>
<path d="M62.056 50.6734C62.5691 48.061 62.8616 45.8832 63.0233 44.4244C54.7685 53.5655 47.2555 63.3603 40.5565 73.7143C35.9642 80.8324 31.7515 88.2765 33.0035 96.7551C33.2908 98.7028 33.981 103.322 37.2649 104.76C40.3564 106.118 44.4639 104.101 46.5625 101.442C48.8895 98.4933 50.5854 93.9798 50.8034 89.7249C50.9625 86.559 52.8559 82.5007 56.0526 68.8309C57.9203 60.8333 60.7219 57.3958 62.056 50.6734Z" fill="url(#paint0_linear_114_153)"/>
<path d="M115.7 86.5952C113.647 69.8474 111.508 60.1582 107.559 49.7035C104.883 42.5388 103.257 40.0816 100.604 38.9564C95.9653 37.001 93.3767 41.2843 84.5254 40.1255C76.9647 39.1582 74.4453 38.7547 74.4453 38.7547C72.0362 38.3952 70.3404 38.1029 68.6471 38.9564C66.2842 40.1488 65.3606 42.7974 64.9681 44.0364C61.8426 53.5256 59.1933 63.1674 57.0302 72.9254C55.7474 79.1098 54.244 85.2683 53.3512 94.5979C52.7944 100.151 52.838 102.94 54.5108 105.345C56.5171 108.244 59.8985 109.165 69.4065 110.223C83.8122 111.819 91.1934 112.585 100.604 110.627C108.006 109.075 112.221 108.133 114.94 104.378C117.059 101.388 117.126 98.2398 115.7 86.5952ZM95.6344 84.9321H76.8313V55.7042H82.6526V80.4341H95.6344V84.9321Z" fill="url(#paint1_linear_114_153)"/>
<defs>
<linearGradient id="paint0_linear_114_153" x1="32.7777" y1="74.811" x2="63.0233" y2="74.811" gradientUnits="userSpaceOnUse">
<stop stop-color="#15152C"/>
<stop offset="1" stop-color="#1A2636"/>
</linearGradient>
<linearGradient id="paint1_linear_114_153" x1="53.0305" y1="75.0955" x2="116.667" y2="75.0955" gradientUnits="userSpaceOnUse">
<stop stop-color="#15152C"/>
<stop offset="1" stop-color="#1A2636"/>
</linearGradient>
</defs>
</svg>
