<svg width="150" height="150" viewBox="0 0 150 150" fill="none" xmlns="http://www.w3.org/2000/svg">
<rect width="150" height="150" fill="#64D2CC"/>
<path d="M115.726 67.1948C115.386 66.9351 114.998 66.7445 114.584 66.6339C114.17 66.5234 113.738 66.4951 113.313 66.5506C112.888 66.6061 112.478 66.7443 112.107 66.9574C111.735 67.1704 111.41 67.4542 111.149 67.7924C106.124 74.2992 90.1789 78.5343 72.3709 78.1186C56.3661 77.7474 42.9372 73.6347 38.9538 67.9186C38.4587 67.2108 37.7012 66.7275 36.8478 66.575C35.9943 66.4226 35.1148 66.6135 34.4029 67.1057C33.6909 67.5979 33.2049 68.3511 33.0515 69.1997C32.8982 70.0482 33.0902 70.9225 33.5853 71.6304C37.285 76.9345 44.3932 80.0784 51.6471 81.9417C51.6033 82.3417 51.621 82.7459 51.6994 83.1406L54.5031 96.9745C54.6875 97.886 55.1835 98.706 55.9069 99.2952C56.6303 99.8845 57.5366 100.207 58.4717 100.207H69.9778C71.0521 100.207 72.0825 99.7832 72.8422 99.0279C73.6018 98.2727 74.0285 97.2483 74.0285 96.1802V84.6402H74.6519H75.981V96.1802C75.981 97.2483 76.4077 98.2727 77.1674 99.0279C77.927 99.7832 78.9574 100.207 80.0317 100.207H91.5342C92.47 100.208 93.3769 99.8858 94.101 99.2964C94.8251 98.7071 95.3217 97.8866 95.5063 96.9745L98.3063 83.1406C98.396 82.7007 98.41 82.2489 98.3475 81.8044C105.975 79.7778 112.627 76.5522 116.327 71.7566C116.59 71.4183 116.783 71.0316 116.895 70.6189C117.007 70.2061 117.036 69.7754 116.981 69.3514C116.925 68.9275 116.785 68.5187 116.57 68.1486C116.355 67.7784 116.068 67.4543 115.726 67.1948V67.1948Z" fill="url(#paint0_linear_114_123)"/>
<path d="M56.4631 54.6007L72.6396 67.5585C73.1717 67.9857 73.8329 68.2227 74.5167 68.2315C75.2005 68.2402 75.8674 68.0202 76.4103 67.6068L93.4604 54.6489C93.9688 54.2628 94.3425 53.7277 94.5285 53.1192C94.7145 52.5106 94.7036 51.8594 94.4973 51.2573C94.2911 50.6552 93.8999 50.1328 93.379 49.7637C92.858 49.3946 92.2335 49.1974 91.5938 49.2H58.3671C57.7362 49.2025 57.1216 49.3991 56.6076 49.763C56.0937 50.1268 55.7058 50.64 55.4971 51.2319C55.2884 51.8239 55.2692 52.4656 55.4422 53.0688C55.6152 53.672 55.9718 54.2072 56.4631 54.6007Z" fill="url(#paint1_linear_114_123)"/>
<defs>
<linearGradient id="paint0_linear_114_123" x1="32.9917" y1="83.3596" x2="116.992" y2="83.3596" gradientUnits="userSpaceOnUse">
<stop stop-color="#15152C"/>
<stop offset="1" stop-color="#1A2636"/>
</linearGradient>
<linearGradient id="paint1_linear_114_123" x1="55.3208" y1="58.7171" x2="94.6664" y2="58.7171" gradientUnits="userSpaceOnUse">
<stop stop-color="#15152C"/>
<stop offset="1" stop-color="#1A2636"/>
</linearGradient>
</defs>
</svg>
