<svg width="150" height="150" viewBox="0 0 150 150" fill="none" xmlns="http://www.w3.org/2000/svg">
<rect width="150" height="150" fill="#64D2CC"/>
<path d="M116.598 46.667C116.076 46.2879 115.458 46.0658 114.816 46.0266C114.173 45.9874 113.532 46.1325 112.968 46.4453C75.2476 67.4797 37.442 46.6668 37.0689 46.4453C36.5036 46.1225 35.8578 45.9697 35.2084 46.005C34.5591 46.0403 33.9336 46.2627 33.4064 46.6449C32.8791 47.0272 32.4726 47.5536 32.2349 48.1614C31.9972 48.7693 31.9383 49.4329 32.0656 50.0733C34.3404 60.489 38.6843 70.3367 44.8371 79.0275C44.2322 80.1099 43.9111 81.3291 43.9041 82.5702C43.9019 83.5491 44.0921 84.5186 44.4636 85.4236C44.835 86.3286 45.3805 87.1511 46.069 87.844C46.7574 88.537 47.5757 89.0869 48.476 89.462C49.3764 89.8371 50.3414 90.03 51.3162 90.03C52.5465 90.0208 53.7546 89.6985 54.8272 89.0931C56.8102 90.5636 58.9353 91.8303 61.1705 92.8742C61.7987 96.0945 63.5216 98.9957 66.0446 101.081C68.5677 103.167 71.7338 104.307 75.0016 104.307C78.2695 104.307 81.436 103.167 83.959 101.081C86.4821 98.9957 88.205 96.0945 88.8332 92.8742C91.0684 91.8303 93.1935 90.5636 95.1765 89.0931C96.2491 89.6985 97.4572 90.0208 98.6875 90.03C99.6623 90.03 100.627 89.8371 101.528 89.462C102.428 89.0869 103.246 88.537 103.934 87.844C104.623 87.1511 105.169 86.3286 105.54 85.4236C105.912 84.5186 106.102 83.5491 106.1 82.5702C106.093 81.3291 105.771 80.1099 105.167 79.0275C111.319 70.3367 115.663 60.489 117.938 50.0733C118.061 49.4364 118 48.7773 117.763 48.1739C117.525 47.5704 117.121 47.0477 116.598 46.667V46.667ZM99.4846 75.2635C99.2209 75.2183 98.9547 75.1898 98.6875 75.1783C96.7218 75.1783 94.8365 75.9626 93.4465 77.3584C92.0565 78.7542 91.2759 80.647 91.2759 82.621C91.2865 82.9007 91.3144 83.1794 91.3603 83.4555C90.3782 84.1972 89.3534 84.88 88.2908 85.4997C87.3272 82.7321 85.5304 80.3335 83.1495 78.6366C80.7687 76.9397 77.9212 76.0282 75.0016 76.0282C72.0821 76.0282 69.235 76.9397 66.8542 78.6366C64.4733 80.3335 62.6765 82.7321 61.7129 85.4997C60.6538 84.8682 59.6293 84.1803 58.6434 83.4389C58.6609 83.1667 58.6609 82.8932 58.6434 82.621C58.6434 80.647 57.8623 78.7542 56.4723 77.3584C55.0823 75.9626 53.1971 75.1783 51.2313 75.1783C50.9696 75.1889 50.709 75.2174 50.4512 75.2635C46.13 69.2947 42.7861 62.671 40.5459 55.6428C52.9273 60.7523 80.2172 68.706 109.22 55.864C107.025 62.8101 103.739 69.3595 99.4846 75.2635V75.2635Z" fill="url(#paint0_linear_118_179)"/>
<defs>
<linearGradient id="paint0_linear_118_179" x1="31.9978" y1="75.1782" x2="118.006" y2="75.1782" gradientUnits="userSpaceOnUse">
<stop stop-color="#15152C"/>
<stop offset="1" stop-color="#1A2636"/>
</linearGradient>
</defs>
</svg>
