<svg width="150" height="150" viewBox="0 0 150 150" fill="none" xmlns="http://www.w3.org/2000/svg">
<rect width="150" height="150" fill="#64D2CC"/>
<path fill-rule="evenodd" clip-rule="evenodd" d="M62.229 59.2124L72.8118 75.463C73.1002 75.9128 73.497 76.2827 73.9656 76.539C74.4342 76.7954 74.9597 76.9298 75.4937 76.9298C76.0277 76.9298 76.5532 76.7954 77.0218 76.539C77.4904 76.2827 77.8872 75.9128 78.1756 75.463L88.7584 59.2124C89.0977 58.6933 89.2786 58.0865 89.2786 57.4661C89.2786 56.8458 89.0977 56.2386 88.7584 55.7195L78.1756 39.4548C77.8849 39.0081 77.4872 38.6409 77.0189 38.3869C76.5507 38.1328 76.0263 38 75.4937 38C74.9611 38 74.4367 38.1328 73.9685 38.3869C73.5002 38.6409 73.1025 39.0081 72.8118 39.4548L62.229 55.7195C61.8897 56.2386 61.7091 56.8458 61.7091 57.4661C61.7091 58.0865 61.8897 58.6933 62.229 59.2124ZM107.719 85.0456C112.621 78.8253 117.653 72.4176 117.984 63.2244C118.028 62.0121 118.273 52.0971 113.414 49.0663C110.921 47.494 108.197 48.4738 105.43 49.4691L105.426 49.4705C97.6837 52.2559 93.6753 59.7463 92.6372 61.8245C92.2963 62.507 91.8213 63.8695 90.9753 66.2964C90.7122 67.0513 90.4132 67.9092 90.0711 68.8816C87.9931 74.9363 86.5755 79.894 85.4438 83.8521L85.3996 84.0065C84.8085 86.0847 84.0298 88.9134 83.1358 92.2905C81.7273 91.8176 80.2799 91.4699 78.8104 91.2515C77.8444 91.1071 76.907 90.9918 76.0563 90.9918H74.8743C74.0236 91.0351 73.1006 91.1071 72.1202 91.2515C70.6506 91.4699 69.2032 91.8176 67.7947 92.2905C67.1265 89.5446 66.4393 87.1612 65.888 85.249C65.7613 84.8095 65.6418 84.3949 65.5313 84.0065L65.4871 83.852C64.3554 79.894 62.9378 74.9363 60.8598 68.8816C60.8125 68.7445 60.766 68.6096 60.7203 68.477C59.3998 64.6461 58.7253 62.6893 58.2933 61.8245C57.2696 59.7463 53.2468 52.2559 45.5187 49.4705L45.4806 49.4568C42.7112 48.4658 40.0138 47.5004 37.5165 49.0663C32.9136 51.9632 32.987 61.0835 33.0025 63.0053C33.0032 63.0942 33.0038 63.1676 33.0038 63.2244C33.321 72.4176 38.3527 78.8253 43.2549 85.0456C47.6018 90.6083 52.8392 95.412 58.7545 99.2614C58.4768 99.852 58.236 100.459 58.0336 101.08C57.4331 102.927 57.0654 104.842 56.9381 106.78C56.8992 107.019 56.9334 107.264 57.0363 107.483C57.1393 107.702 57.306 107.885 57.5147 108.007C63.1587 110.563 69.2785 111.895 75.473 111.917C81.6675 111.94 87.7968 110.651 93.4591 108.137C93.6693 108.016 93.8372 107.834 93.9403 107.614C94.0435 107.395 94.0771 107.149 94.0361 106.91V106.78C93.9088 104.842 93.5407 102.927 92.9403 101.08C92.6808 100.3 92.4212 99.6799 92.2338 99.2614C98.1422 95.4084 103.374 90.6051 107.719 85.0456Z" fill="url(#paint0_linear_118_197)"/>
<defs>
<linearGradient id="paint0_linear_118_197" x1="65.1091" y1="47.0691" x2="85.8967" y2="67.8367" gradientUnits="userSpaceOnUse">
<stop stop-color="#15152C"/>
<stop offset="1" stop-color="#1A2636"/>
</linearGradient>
</defs>
</svg>
