<svg width="150" height="150" viewBox="0 0 150 150" fill="none" xmlns="http://www.w3.org/2000/svg">
<rect width="150" height="150" fill="#64D2CC"/>
<path d="M109.643 73.5976C102.795 63.1016 95.1122 53.1732 86.6704 43.9086C86.8385 45.3866 87.1306 47.5932 87.6606 50.2417C89.023 57.058 91.8927 60.5411 93.8006 68.6494C97.0607 82.5069 99.0048 86.6179 99.1677 89.8374C99.39 94.15 101.125 98.726 103.506 101.723C105.652 104.418 109.85 106.467 113.012 105.082C116.373 103.617 117.071 98.9405 117.368 96.9664C118.671 88.3594 114.341 80.817 109.643 73.5976Z" fill="url(#paint0_linear_114_163)"/>
<path d="M64.693 62.8641H60.2695V71.7269H64.6025C66.3139 71.7269 67.5911 71.3626 68.4339 70.6339C69.2534 69.9053 69.6877 68.8252 69.6877 67.4221C69.6877 66.0191 69.2534 64.9158 68.4106 64.0941C67.5678 63.2724 66.3346 62.8641 64.693 62.8641Z" fill="url(#paint1_linear_114_163)"/>
<path d="M92.8182 72.7992C90.6069 62.9078 87.8975 53.1343 84.7004 43.5159C84.2868 42.2627 83.3458 39.5728 80.9259 38.3662C79.1705 37.498 77.4384 37.7951 74.9798 38.1594C74.9798 38.1594 72.3945 38.5703 64.6955 39.5496C55.6419 40.7123 53.0049 36.3817 48.2531 38.3662C45.5076 39.5057 43.8762 41.9888 41.1126 49.2573C37.0976 59.8513 34.9079 69.6701 32.788 86.6567C31.3299 98.4625 31.3971 101.643 33.5868 104.682C36.3686 108.488 40.655 109.447 48.248 111.018C57.8755 112.992 65.4142 112.217 80.1297 110.607C89.8684 109.537 93.3327 108.602 95.3828 105.661C97.0917 103.225 97.115 100.398 96.5669 94.7701C95.6362 85.3441 94.1315 79.0678 92.8182 72.7992ZM77.5185 88.592H71.2156C70.6443 88.1373 70.2797 87.4086 70.1194 86.3828C69.9679 85.3874 69.8919 84.382 69.8919 83.3751V81.2331C69.8919 79.7034 69.4835 78.5432 68.6381 77.6983C67.7927 76.8534 66.6319 76.4219 65.1273 76.4219H60.2695V88.592H54.1605V58.1459H64.6929C68.1831 58.1459 70.8976 58.9443 72.8573 60.5154C74.8169 62.0864 75.776 64.3214 75.776 67.1482C75.8088 68.5902 75.3765 70.0044 74.5429 71.1817C73.7001 72.3212 72.4927 73.2333 70.9235 73.9387C72.7332 74.4555 74.0025 75.3521 74.8014 76.5821C75.6002 77.812 75.988 79.3623 75.988 81.1866V83.4191C75.9918 84.3187 76.1073 85.2144 76.3319 86.0857C76.5594 87.021 76.9472 87.7032 77.5159 88.1528L77.5185 88.592Z" fill="url(#paint2_linear_114_163)"/>
<defs>
<linearGradient id="paint0_linear_114_163" x1="86.6704" y1="74.7113" x2="117.598" y2="74.7113" gradientUnits="userSpaceOnUse">
<stop stop-color="#15152C"/>
<stop offset="1" stop-color="#1A2636"/>
</linearGradient>
<linearGradient id="paint1_linear_114_163" x1="60.2695" y1="67.2955" x2="69.6877" y2="67.2955" gradientUnits="userSpaceOnUse">
<stop stop-color="#15152C"/>
<stop offset="1" stop-color="#1A2636"/>
</linearGradient>
<linearGradient id="paint2_linear_114_163" x1="31.8056" y1="74.9981" x2="96.8875" y2="74.9981" gradientUnits="userSpaceOnUse">
<stop stop-color="#15152C"/>
<stop offset="1" stop-color="#1A2636"/>
</linearGradient>
</defs>
</svg>
